<svg xmlns="http://www.w3.org/2000/svg" width="60" height="60" viewBox="0 0 60 60">
    <g fill="#FFF" fill-rule="evenodd">
        <path d="M40.422 28.895l1.096-8.328a9.404 9.404 0 0 0 3.237-7.094c-.015-5.191-4.213-9.396-9.396-9.41h-.325a6.909 6.909 0 0 0-5.833-3.21 6.909 6.909 0 0 0-5.834 3.21h-.328c-5.183.014-9.38 4.219-9.395 9.41a9.404 9.404 0 0 0 3.237 7.094l1.558 11.854 21.983-3.526zM40.37 45.606c.93 9.668-10.23 15.7-17.795 9.671-2.602-2.078-3.441-4.266-4.134-7.314l4.252-.688c.472 1.92.887 3.302 2.623 4.658 4.54 3.56 11.234 0 10.778-5.799l-.082-1.014 4.252-.688.105 1.174z"/>
        <path d="M40.325 45.63c.93 9.668-10.23 15.7-17.795 9.67-2.607-2.077-3.451-4.258-4.139-7.316l4.252-.688c.472 1.92.887 3.302 2.623 4.658 4.54 3.56 11.234 0 10.778-5.799l-.081-1.014 4.251-.688.11 1.177zM48.548 45.84v-.047.047zm7.22-9.379a62.496 62.496 0 0 1-1.277 3.873 46.125 46.125 0 0 1-1.456 3.504 7.938 7.938 0 0 1-.569 1.051 3.261 3.261 0 0 1-.627.707 2.194 2.194 0 0 1-.766.407 3.488 3.488 0 0 1-.999.129 4.096 4.096 0 0 1-.876-.09h-.026v-1.72a2.774 2.774 0 0 0 .8.105c.306.02.607-.085.834-.292.219-.233.389-.508.498-.809a39.252 39.252 0 0 1-2.696-6.85h2.143c.09.351.197.734.32 1.149.122.415.25.832.385 1.25.139.423.278.832.417 1.23.14.4.276.762.402 1.088a36.298 36.298 0 0 0 .742-2.317c.124-.423.242-.84.354-1.251.112-.412.214-.794.307-1.148l2.09-.016z"/>
        <path d="M46.882 54.738V44.632l2.022-.326v3.32c.172-.053.347-.096.525-.128.203-.04.41-.06.616-.06.493-.015.984.066 1.445.239.361.14.68.372.924.672.237.304.403.657.488 1.033.099.437.146.884.141 1.332v4.035h-2.022v-3.802c0-.651-.087-1.113-.262-1.387-.175-.273-.485-.409-.929-.407a2.593 2.593 0 0 0-.509.047c-.159.032-.301.066-.427.103v5.435h-2.012zM40.558 51.166c0-.5.09-.994.262-1.461.318-.902 1-1.63 1.878-2.005a3.8 3.8 0 0 1 1.548-.3c.352-.002.704.032 1.05.103.315.068.625.165.922.292l-.42 1.618a5.085 5.085 0 0 0-.624-.189 3.258 3.258 0 0 0-.76-.081 1.599 1.599 0 0 0-1.335.557c-.311.424-.467.942-.441 1.468-.034.53.112 1.058.414 1.495.277.35.758.525 1.446.525.263-.001.527-.024.787-.068.265-.041.525-.114.773-.218l.286 1.658c-.284.116-.58.204-.881.263a5.803 5.803 0 0 1-1.167.107 4.384 4.384 0 0 1-1.682-.291 3.17 3.17 0 0 1-1.159-.788 3.101 3.101 0 0 1-.664-1.19 5.054 5.054 0 0 1-.21-1.488M11.984 50.947c0-.651-.088-1.113-.263-1.387a.93.93 0 0 0-.86-.407c-.131 0-.263.008-.393.021-.137.014-.268.03-.394.047v5.517H8.062v-6.901a14.831 14.831 0 0 1 1.335-.279c.257-.04.52-.071.787-.094a9.43 9.43 0 0 1 .8-.034c.434-.018.867.05 1.275.197.286.112.552.27.787.467.304-.215.64-.38.997-.488a3.486 3.486 0 0 1 1.049-.176 3.56 3.56 0 0 1 1.403.239c.346.142.649.374.876.672.225.307.378.66.449 1.033.085.439.127.885.123 1.332v4.035h-2.04v-3.794c0-.651-.088-1.113-.263-1.387a.93.93 0 0 0-.86-.407 1.815 1.815 0 0 0-.454.082c-.17.044-.333.113-.483.204.065.215.107.436.124.66.017.231.026.478.026.74v3.9h-2.01v-3.792zM48.036 38.253a10.925 10.925 0 0 0-.637-.142 3.666 3.666 0 0 0-1.24-.04c-.136.015-.27.04-.402.074v5.462h-2.023V36.84c.421-.143.85-.263 1.283-.36a7.383 7.383 0 0 1 1.647-.17c.109 0 .24.007.394.02a8.288 8.288 0 0 1 .923.137c.134.026.266.065.393.116l-.338 1.67zM32.28 43.607a35.795 35.795 0 0 1-1.411-3.179 48.862 48.862 0 0 1-1.354-3.967h2.154c.09.35.197.733.32 1.148a77.53 77.53 0 0 0 .776 2.48c.131.4.263.762.388 1.088.118-.326.245-.688.383-1.088.139-.399.272-.809.402-1.23.13-.42.262-.837.383-1.25.12-.412.228-.788.32-1.148h2.098a50.249 50.249 0 0 1-1.353 3.967 35.333 35.333 0 0 1-1.409 3.18H32.28zM29.193 34.394c.02.334-.113.66-.36.885a1.286 1.286 0 0 1-1.697 0 1.25 1.25 0 0 1 0-1.752 1.286 1.286 0 0 1 1.697 0c.245.224.377.545.36.877v-.01zm-.19 9.224h-2.021v-7.16h2.022v7.16zM25.854 43.744a5.044 5.044 0 0 1-1.432-.19 2.116 2.116 0 0 1-.869-.496 1.645 1.645 0 0 1-.435-.775 4.192 4.192 0 0 1-.115-1.027v-7.869l2.022-.325v7.787c-.001.163.013.327.042.488.022.134.076.26.157.368a.826.826 0 0 0 .333.244c.186.073.383.115.583.124l-.286 1.67zM36.485 40.087a4.378 4.378 0 0 1 .29-1.666c.174-.444.435-.849.767-1.19.31-.313.681-.558 1.09-.72a3.405 3.405 0 0 1 1.27-.244 3.145 3.145 0 0 1 2.4.93c.588.62.882 1.532.882 2.737 0 .118-.005.246-.014.386-.008.14-.017.265-.026.374h-4.582c.036.401.25.766.582.993.412.264.897.393 1.385.367.366 0 .732-.034 1.091-.102.301-.055.595-.143.876-.263l.263 1.645c-.14.066-.286.12-.436.163-.198.058-.4.105-.603.142-.222.04-.46.074-.713.102a7.1 7.1 0 0 1-.761.04 4.49 4.49 0 0 1-1.676-.287 3.263 3.263 0 0 1-1.18-.788 3.101 3.101 0 0 1-.693-1.174 4.665 4.665 0 0 1-.223-1.469l.01.024zm4.737-.799a2.084 2.084 0 0 0-.09-.502 1.228 1.228 0 0 0-.624-.749 1.278 1.278 0 0 0-.59-.123c-.2-.005-.4.034-.582.116a1.201 1.201 0 0 0-.407.304c-.114.13-.203.28-.262.442a2.907 2.907 0 0 0-.129.51l2.684.002zM15.572 40.087a4.378 4.378 0 0 1 .291-1.655c.173-.444.434-.85.766-1.19.31-.313.682-.558 1.091-.72a3.405 3.405 0 0 1 1.27-.245 3.145 3.145 0 0 1 2.4.93c.587.62.88 1.533.88 2.738 0 .117-.004.246-.012.386-.009.14-.018.264-.027.373H17.65c.036.402.25.766.582.993.41.259.889.385 1.372.36a5.83 5.83 0 0 0 1.091-.102c.301-.055.595-.143.876-.263l.263 1.644c-.14.067-.286.121-.436.163-.198.059-.4.106-.603.142-.222.04-.46.075-.713.103a7.1 7.1 0 0 1-.761.04 4.49 4.49 0 0 1-1.676-.287 3.263 3.263 0 0 1-1.18-.788 3.101 3.101 0 0 1-.693-1.175 4.662 4.662 0 0 1-.223-1.468l.024.02zm4.724-.796c-.01-.17-.04-.34-.09-.502a1.256 1.256 0 0 0-.23-.436 1.228 1.228 0 0 0-.373-.29 1.278 1.278 0 0 0-.59-.123c-.2-.005-.399.035-.582.116-.154.073-.29.177-.401.307-.115.13-.204.28-.263.442a2.917 2.917 0 0 0-.128.51l2.657-.024zM10.124 39.979c-.026.535.12 1.064.42 1.508.294.387.763.601 1.248.57a5.717 5.717 0 0 0 .881-.068V38.31a1.761 1.761 0 0 0-.495-.205 2.38 2.38 0 0 0-.617-.082c-.958 0-1.437.653-1.437 1.958v-.003zm4.572 3.4a6.5 6.5 0 0 1-.625.155 13.541 13.541 0 0 1-1.526.218 9.046 9.046 0 0 1-.766.034 4.481 4.481 0 0 1-1.574-.263 3.163 3.163 0 0 1-1.167-.74 3.217 3.217 0 0 1-.713-1.167 4.473 4.473 0 0 1-.263-1.542 5.286 5.286 0 0 1 .218-1.577c.127-.434.34-.839.624-1.19.27-.32.61-.573.994-.738a3.34 3.34 0 0 1 1.351-.263c.253-.003.506.024.753.082.23.057.455.134.671.23v-3.23l2.023-.326v10.317z"/>
    </g>
</svg>
